<?xml version="1.0" encoding="UTF-8" standalone="no"?>
<svg
   xmlns:dc="http://purl.org/dc/elements/1.1/"
   xmlns:cc="http://creativecommons.org/ns#"
   xmlns:rdf="http://www.w3.org/1999/02/22-rdf-syntax-ns#"
   xmlns:svg="http://www.w3.org/2000/svg"
   xmlns="http://www.w3.org/2000/svg"
   xmlns:sodipodi="http://sodipodi.sourceforge.net/DTD/sodipodi-0.dtd"
   xmlns:inkscape="http://www.inkscape.org/namespaces/inkscape"
   xml:space="preserve"
   style="enable-background:new 0 0 144 144;"
   viewBox="19 19 106 106"
   height="144px"
   width="144px"
   y="0px"
   x="0px"
   id="Layer_1"
   version="1.1"
   sodipodi:docname="tsukuyomi-icon.svg"
   inkscape:version="0.92.3 (2405546, 2018-03-11)"
   inkscape:export-filename="C:\Users\ubnt-intrepid\Dropbox\icon\tsukuyomi\logo\tsukuyomi-icon.png"
   inkscape:export-xdpi="345.69"
   inkscape:export-ydpi="345.69"><metadata
     id="metadata8"><rdf:RDF><cc:Work
         rdf:about=""><dc:format>image/svg+xml</dc:format><dc:type
           rdf:resource="http://purl.org/dc/dcmitype/StillImage" /><dc:title /></cc:Work></rdf:RDF></metadata><defs
     id="defs6"><filter
       style="color-interpolation-filters:sRGB;"
       inkscape:label="Cross Blur"
       id="filter863"><feColorMatrix
         in="SourceGraphic"
         values="1 0 0 0 0 0 1 0 0 0 0 0 1 0 0 -0.2125 -0.7154 -0.0721 1 0 "
         result="colormatrix"
         id="feColorMatrix853" /><feComposite
         in="SourceGraphic"
         in2="colormatrix"
         operator="arithmetic"
         k2="1"
         k3="0"
         k4="0"
         result="composite"
         id="feComposite855" /><feGaussianBlur
         stdDeviation="5 0.01"
         result="blur1"
         id="feGaussianBlur857" /><feGaussianBlur
         in="composite"
         stdDeviation="0.01 5"
         result="blur2"
         id="feGaussianBlur859" /><feBlend
         in="blur2"
         in2="blur1"
         mode="darken"
         result="blend"
         id="feBlend861" /></filter></defs><sodipodi:namedview
     pagecolor="#ffffff"
     bordercolor="#666666"
     borderopacity="1"
     objecttolerance="10"
     gridtolerance="10"
     guidetolerance="10"
     inkscape:pageopacity="0"
     inkscape:pageshadow="2"
     inkscape:window-width="958"
     inkscape:window-height="1018"
     id="namedview4"
     showgrid="true"
     inkscape:snap-global="false"
     inkscape:zoom="4"
     inkscape:cx="39.640909"
     inkscape:cy="79.324088"
     inkscape:window-x="953"
     inkscape:window-y="0"
     inkscape:window-maximized="0"
     inkscape:current-layer="Layer_1"><inkscape:grid
       type="xygrid"
       id="grid815"
       units="mm"
       spacingx="0.55643045"
       spacingy="0.55643045"
       color="#ff3f35"
       opacity="0.1254902"
       dotted="false" /></sodipodi:namedview><path
     style="fill:#eedac8;fill-opacity:1;stroke-width:1.10550618"
     id="path825"
     sodipodi:type="arc"
     sodipodi:cx="72"
     sodipodi:cy="72"
     sodipodi:rx="44.166668"
     sodipodi:ry="44.166668"
     sodipodi:start="2.3972097"
     sodipodi:end="2.3510981"
     sodipodi:open="true"
     d="m 39.515146,101.92372 a 44.166668,44.166668 0 0 1 2.188652,-62.061465 44.166668,44.166668 0 0 1 62.082572,1.473083 44.166668,44.166668 0 0 1 -0.75732,62.095422 44.166668,44.166668 0 0 1 -62.100032,-0.0415"
     inkscape:export-xdpi="345.69"
     inkscape:export-ydpi="345.69" /><path
     style="stroke-width:1.35849059;fill:#2d1200;fill-opacity:1"
     d="m 72.003906,0.90625 c -0.711849,0 -1.373867,0.3681285 -1.746094,0.9726562 L 66.5625,7.8496094 c -0.581434,0.047547 -1.162876,0.1060734 -1.740234,0.1699218 L 60.037109,2.8847656 C 59.552128,2.3658222 58.831671,2.1342768 58.134766,2.2714844 57.435143,2.4114089 56.859932,2.899982 56.611328,3.5683594 l -2.453125,6.5585936 c -0.567849,0.163019 -1.13035,0.337068 -1.691406,0.513672 L 46.783203,6.5488281 C 46.205845,6.1317715 45.454384,6.0439443 44.796875,6.3183594 44.140724,6.5900575 43.668795,7.1857376 43.554688,7.8867188 l -1.126954,6.9160152 c -0.52166,0.27034 -1.037866,0.548107 -1.552734,0.832032 l -6.376953,-2.90625 c -0.648,-0.296151 -1.404556,-0.236523 -1.994141,0.160156 -0.592302,0.393962 -0.937326,1.070759 -0.910156,1.78125 l 0.244141,7.017578 c -0.453736,0.362717 -0.90343,0.732478 -1.347657,1.107422 L 23.65625,21.183594 c -0.694189,-0.161661 -1.42314,0.04619 -1.925781,0.548828 -0.505359,0.504 -0.709894,1.229639 -0.546875,1.923828 l 1.609375,6.835938 c -0.373585,0.442861 -0.742752,0.891967 -1.105469,1.345703 L 14.669922,31.59375 c -0.707774,-0.02038 -1.385929,0.317854 -1.78125,0.910156 -0.396679,0.589585 -0.454949,1.344782 -0.160156,1.994141 l 2.90625,6.378906 c -0.282566,0.512151 -0.561692,1.028357 -0.832032,1.552735 l -6.9160152,1.125 c -0.7023397,0.114107 -1.2933497,0.584678 -1.5664063,1.242187 -0.2716981,0.658868 -0.1838703,1.40897 0.2304687,1.986328 l 4.0898438,5.681641 c -0.177962,0.561056 -0.350653,1.12551 -0.513672,1.693359 L 3.5683594,56.609375 C 2.902699,56.857979 2.4120035,57.435143 2.2734375,58.134766 2.1348715,58.83303 2.36837,59.55077 2.8886719,60.037109 l 5.1308593,4.785157 c -0.063849,0.577358 -0.1210162,1.158205 -0.1699218,1.738281 l -5.96875,3.695312 c -0.6045283,0.373585 -0.97265627,1.032887 -0.97265628,1.746094 0,0.713208 0.36812798,1.373867 0.97265628,1.746094 l 5.96875,3.695312 c 0.048906,0.581434 0.1060734,1.160923 0.1699218,1.738282 L 2.8886719,83.96875 c -0.5203019,0.484981 -0.7538004,1.205438 -0.6152344,1.902344 0.138566,0.699622 0.6292615,1.273475 1.2949219,1.523437 l 6.5585936,2.451172 c 0.163019,0.567849 0.33571,1.132309 0.513672,1.693359 l -4.0898438,5.683594 c -0.4156975,0.578717 -0.5035253,1.328224 -0.2304687,1.984375 0.2730566,0.658868 0.8660198,1.129429 1.5683594,1.242189 l 6.9140621,1.125 c 0.27034,0.52438 0.546749,1.03982 0.832032,1.55469 l -2.90625,6.37695 c -0.296151,0.648 -0.236523,1.40184 0.160156,1.99414 0.396679,0.59366 1.073476,0.93868 1.78125,0.91016 l 7.013672,-0.24414 c 0.365434,0.45645 0.734431,0.90343 1.109375,1.34765 l -1.609375,6.83594 c -0.163019,0.69283 0.04152,1.41787 0.546875,1.92187 0.501283,0.50672 1.231592,0.70795 1.925781,0.54493 l 6.833984,-1.60938 c 0.444227,0.37766 0.893921,0.74411 1.347657,1.10547 l -0.244141,7.01953 c -0.02717,0.71049 0.317854,1.38457 0.910156,1.78125 0.589585,0.39532 1.346141,0.45436 1.994141,0.1582 L 40.875,128.36719 c 0.513509,0.28528 1.029716,0.56169 1.552734,0.83203 l 1.126954,6.91211 c 0.114107,0.7037 0.584678,1.29802 1.242187,1.56836 0.656151,0.27305 1.40897,0.18582 1.986328,-0.22852 l 5.681641,-4.09375 c 0.561056,0.17796 1.12551,0.35261 1.693359,0.51563 l 2.451172,6.55468 c 0.248604,0.66566 0.825768,1.15908 1.525391,1.29493 0.698264,0.14128 1.415409,-0.0916 1.90039,-0.61328 l 4.78711,-5.13086 c 0.577358,0.0666 1.1588,0.1222 1.740234,0.17382 l 3.695312,5.96875 c 0.372227,0.60182 1.032292,0.97266 1.744141,0.97266 0.711849,0 1.374462,-0.36949 1.748047,-0.97266 l 3.695312,-5.96875 c 0.581434,-0.0516 1.160923,-0.10726 1.738282,-0.17382 l 4.785156,5.13086 c 0.484981,0.5216 1.205438,0.75456 1.902344,0.61328 0.699622,-0.13721 1.274833,-0.62927 1.523437,-1.29493 l 2.451172,-6.55468 c 0.567849,-0.16302 1.132309,-0.33767 1.693359,-0.51563 l 5.683594,4.09375 c 0.577359,0.41434 1.328224,0.50157 1.984375,0.22852 0.65751,-0.27034 1.128079,-0.86602 1.242189,-1.56836 l 1.12695,-6.91211 c 0.52166,-0.27034 1.03787,-0.55082 1.55274,-0.83203 l 6.37695,2.90429 c 0.648,0.29616 1.4032,0.23712 1.99414,-0.1582 0.5923,-0.39668 0.93597,-1.0694 0.91016,-1.78125 l -0.24414,-7.01953 c 0.45373,-0.36272 0.90478,-0.72781 1.34765,-1.10547 l 6.83399,1.60938 c 0.69418,0.16302 1.42254,-0.0382 1.92382,-0.54493 0.50536,-0.504 0.7099,-1.22904 0.54688,-1.92187 l -1.60938,-6.83594 c 0.37495,-0.44422 0.74411,-0.8912 1.10547,-1.34765 l 7.01758,0.24414 c 0.70777,0.0285 1.38398,-0.3165 1.7793,-0.91016 0.39668,-0.5923 0.45766,-1.34614 0.16015,-1.99414 l -2.90429,-6.37695 c 0.28392,-0.51487 0.56109,-1.03031 0.83008,-1.55469 l 6.91601,-1.125 c 0.7037,-0.11276 1.29471,-0.583321 1.56641,-1.242189 0.2717,-0.656151 0.18659,-1.405658 -0.23047,-1.984375 l -4.08984,-5.683594 c 0.17654,-0.56105 0.34929,-1.12551 0.51367,-1.693359 l 6.55664,-2.451172 c 0.66702,-0.249962 1.15907,-0.823815 1.29492,-1.523437 0.14128,-0.698264 -0.0916,-1.417363 -0.61328,-1.902344 l -5.13086,-4.787109 c 0.0625,-0.577359 0.11966,-1.158206 0.16992,-1.738282 l 5.96875,-3.695312 c 0.60453,-0.372227 0.97266,-1.034245 0.97266,-1.746094 0,-0.711849 -0.36618,-1.372509 -0.97071,-1.746094 l -5.96875,-3.695312 c -0.0503,-0.581434 -0.10743,-1.160923 -0.16992,-1.738281 l 5.12891,-4.785157 c 0.52166,-0.486339 0.75652,-1.205438 0.61523,-1.902343 -0.13721,-0.699623 -0.6279,-1.276787 -1.29492,-1.525391 l -6.55859,-2.451172 c -0.16438,-0.567849 -0.33713,-1.132303 -0.51367,-1.693359 l 4.09179,-5.681641 c 0.41706,-0.577358 0.50217,-1.32746 0.23047,-1.986328 -0.2717,-0.656151 -0.86602,-1.126722 -1.56836,-1.242187 l -6.91406,-1.125 c -0.26898,-0.524378 -0.54947,-1.040584 -0.83203,-1.552735 l 2.90625,-6.378906 c 0.29751,-0.649359 0.23652,-1.404556 -0.16016,-1.994141 -0.39532,-0.592302 -1.06473,-0.937326 -1.7793,-0.910156 l -7.01757,0.244141 c -0.36272,-0.453736 -0.73308,-0.9042 -1.10938,-1.345703 l 1.61328,-6.835938 c 0.16302,-0.694189 -0.0435,-1.419828 -0.54883,-1.923828 -0.50128,-0.502642 -1.22768,-0.711847 -1.92187,-0.548828 l -6.83594,1.611328 c -0.44287,-0.374944 -0.89256,-0.744705 -1.34765,-1.107422 l 0.24609,-7.017578 c 0.0272,-0.710491 -0.31981,-1.387288 -0.91211,-1.78125 -0.59366,-0.396679 -1.34419,-0.454949 -1.99219,-0.160156 l -6.37695,2.90625 c -0.51487,-0.282566 -1.03107,-0.561692 -1.55274,-0.832032 L 100.45117,7.8867188 C 100.33706,7.1857376 99.866494,6.5900575 99.208984,6.3183594 98.552833,6.0453028 97.800015,6.13313 97.222656,6.5488281 L 91.537109,10.640625 C 90.977411,10.462663 90.415505,10.289972 89.847656,10.126953 L 87.396484,3.5683594 C 87.147881,2.899982 86.570716,2.4100504 85.871094,2.2714844 85.17283,2.1342768 84.453731,2.3658222 83.96875,2.8847656 L 79.185547,8.0195312 C 78.608188,7.9556828 78.025388,7.8971565 77.445312,7.8496094 L 73.751953,1.8789062 C 73.378368,1.2743785 72.715755,0.90625 72.003906,0.90625 Z M 71.875,13.480469 c 1.08017,0.02513 2.150767,0.463018 2.957031,1.30664 1.609812,1.691321 1.549932,4.365988 -0.138672,5.978516 -1.684528,1.613887 -4.358174,1.55129 -5.970703,-0.138672 -1.608453,-1.688604 -1.54662,-4.362676 0.140625,-5.976562 0.842264,-0.806944 1.931549,-1.195054 3.011719,-1.169922 z m 9.703125,6.958984 c 15.243623,2.837887 28.148205,12.327288 35.585935,25.345703 l -4.98047,11.248047 c -0.85992,1.946717 0.0177,4.223296 1.95899,5.085938 l 9.58789,4.259765 c 0.28479,3.142259 0.32516,6.097874 0.11133,9.023438 -0.726,9.739275 -4.21432,19.051776 -9.95313,26.923826 -1.46853,1.99562 -3.08161,3.88376 -4.8164,5.64844 l -8.93165,-1.91797 c -0.645273,-0.13825 -1.281056,-0.0902 -1.873042,0.082 v 0.0664 h -0.224609 c -1.212653,0.43448 -2.182869,1.45721 -2.472657,2.8125 l -2.11914,9.89062 c -6.539774,2.96831 -13.80287,4.61719 -21.451172,4.61719 -7.823547,0 -15.243787,-1.73153 -21.900391,-4.82617 l -2.117187,-9.88867 c -0.445585,-2.08121 -2.491822,-3.40788 -4.570313,-2.96094 l -8.730468,1.875 c -1.62068,-1.66823 -3.129965,-3.44619 -4.515625,-5.32227 v 0 C 26.489418,97.398703 23.693383,91.776746 21.998048,85.802734 v 0 C 20.70884,81.27081 20.017579,76.486516 20.017579,71.542969 c 0,-1.886944 0.101252,-3.751381 0.296875,-5.583985 l 9.095703,-4.041015 c 1.871618,-0.831103 2.738709,-2.972605 2.029297,-4.869141 -1.596761,-3.647437 -3.378084,-7.728918 -4.837891,-11.05664 1.912558,-3.276425 4.08174,-6.337035 6.673828,-9.126954 v 0 C 40.75524,28.51731 50.893715,22.603021 62.359375,20.451172 l 6.501953,6.822266 c 1.469887,1.539163 3.903595,1.596239 5.441406,0.125 z M 21.333984,51.703125 c 1.645217,-0.02827 3.224462,0.912011 3.933594,2.513672 0.94551,2.134189 -0.01501,4.635927 -2.146484,5.580078 -2.131472,0.946868 -4.626756,-0.0168 -5.572266,-2.152344 -0.945509,-2.135547 0.01697,-4.631257 2.148438,-5.578125 0.533207,-0.236377 1.088313,-0.353856 1.636718,-0.363281 z m 100.884766,0.205078 c 0.54832,0.0095 1.10385,0.126564 1.63672,0.363281 2.13147,0.94551 3.09199,3.445896 2.14648,5.580078 -0.94415,2.135548 -3.43748,3.099212 -5.57031,2.152344 -2.12875,-0.945509 -3.09063,-3.445125 -2.14648,-5.582031 0.70811,-1.600642 2.28863,-2.5422 3.93359,-2.513672 z M 40.460938,111.20312 c 1.963617,-0.0173 3.736137,1.34559 4.164062,3.34376 0.487698,2.2822 -0.963999,4.53242 -3.242188,5.02148 -2.279541,0.49177 -4.523256,-0.96247 -5.013671,-3.24609 -0.487698,-2.2877 0.96264,-4.53368 3.242187,-5.02539 0.284944,-0.061 0.569092,-0.0913 0.84961,-0.0938 z m 62.630862,0.20508 c 0.28038,0.003 0.56483,0.0342 0.84961,0.0957 2.27954,0.48769 3.73124,2.73922 3.24218,5.02148 -0.48905,2.28226 -2.73548,3.73575 -5.01367,3.24805 -2.279533,-0.49178 -3.729289,-2.73905 -3.240232,-5.02539 0.426729,-1.99817 2.199412,-3.35985 4.162112,-3.33985 z"
     id="path3"
     inkscape:connector-curvature="0"
     sodipodi:nodetypes="scccccccccccccccccccccccccccccccccccccccscccccccccccccccccccccccccccccccccccccccscccccccccccccccccccccccccccccccccccccccscccccccccccccccccccccccccccccccccccccccsccccccccccccccccccccsccccccccscccccccccccccscccccccccccccccccccccc"
     inkscape:export-xdpi="345.69"
     inkscape:export-ydpi="345.69"
     transform="matrix(0.73611111,0,0,0.73611111,19,19)" /><path
     style="fill:#999999;fill-opacity:0.80288463;stroke-width:0.24905683"
     id="path825-7"
     sodipodi:type="arc"
     sodipodi:cx="51.388885"
     sodipodi:cy="73.65625"
     sodipodi:rx="9.9963169"
     sodipodi:ry="9.9043026"
     sodipodi:start="2.3972097"
     sodipodi:end="2.3510981"
     sodipodi:open="true"
     d="M 44.036533,80.366594 A 9.9963169,9.9043026 0 0 1 44.531895,66.449413 9.9963169,9.9043026 0 0 1 58.583148,66.77975 9.9963169,9.9043026 0 0 1 58.411742,80.704547 9.9963169,9.9043026 0 0 1 44.356537,80.69525" /><path
     style="fill:#999999;fill-opacity:0.80288463;stroke-width:0.16268779"
     id="path825-7-9"
     sodipodi:type="arc"
     sodipodi:cx="58.335941"
     sodipodi:cy="57.783848"
     sodipodi:rx="6.5457959"
     sodipodi:ry="6.4537816"
     sodipodi:start="2.3972097"
     sodipodi:end="2.3510981"
     sodipodi:open="true"
     d="m 53.521468,62.156402 a 6.5457959,6.4537816 0 0 1 0.324373,-9.068629 6.5457959,6.4537816 0 0 1 9.201053,0.215252 6.5457959,6.4537816 0 0 1 -0.11224,9.073591 6.5457959,6.4537816 0 0 1 -9.20364,-0.0061" /><path
     style="fill:#999999;fill-opacity:0.80288463;stroke-width:0.12353852"
     id="path825-7-9-7"
     sodipodi:type="arc"
     sodipodi:cx="68.963539"
     sodipodi:cy="50.468754"
     sodipodi:rx="4.9355536"
     sodipodi:ry="4.9355536"
     sodipodi:start="2.3972097"
     sodipodi:end="2.3510981"
     sodipodi:open="true"
     d="m 65.333409,53.812681 a 4.9355536,4.9355536 0 0 1 0.244579,-6.935268 4.9355536,4.9355536 0 0 1 6.937626,0.164615 4.9355536,4.9355536 0 0 1 -0.08463,6.939063 4.9355536,4.9355536 0 0 1 -6.939578,-0.0046" /><path
     style="fill:#999999;fill-opacity:0.80288463;stroke-width:0.05905066"
     id="path825-7-9-7-1"
     sodipodi:type="arc"
     sodipodi:cx="76.600693"
     sodipodi:cy="53.321182"
     sodipodi:rx="2.3591647"
     sodipodi:ry="2.3591647"
     sodipodi:start="2.3972097"
     sodipodi:end="2.3510981"
     sodipodi:open="true"
     d="m 74.865513,54.919559 a 2.3591647,2.3591647 0 0 1 0.116907,-3.315016 2.3591647,2.3591647 0 0 1 3.316143,0.07869 2.3591647,2.3591647 0 0 1 -0.04045,3.31683 2.3591647,2.3591647 0 0 1 -3.317076,-0.0022" /><path
     style="fill:#999999;fill-opacity:0.80288463;stroke-width:0.09129459"
     id="path825-7-9-7-1-7"
     sodipodi:type="arc"
     sodipodi:cx="76.140625"
     sodipodi:cy="43.291668"
     sodipodi:rx="3.6473591"
     sodipodi:ry="3.6473591"
     sodipodi:start="2.3972097"
     sodipodi:end="2.3510981"
     sodipodi:open="true"
     d="m 73.45797,45.76282 a 3.6473591,3.6473591 0 0 1 0.180743,-5.125142 3.6473591,3.6473591 0 0 1 5.126885,0.12165 3.6473591,3.6473591 0 0 1 -0.06254,5.127946 3.6473591,3.6473591 0 0 1 -5.128327,-0.0034" /><path
     style="fill:#999999;fill-opacity:0.80288463;stroke-width:0.34564465"
     d="m 55.509766,87.007812 c -0.954887,-0.0248 -1.865679,0.04063 -2.71875,0.195313 -7.000703,1.269803 -8.750188,8.163243 -3.923828,15.460935 4.370977,5.68193 13.172974,10.59255 19.382812,11.32813 6.209838,0.73558 12.649332,0.74126 17.072266,-1.38281 7.094438,-3.40962 4.276376,-11.10598 -0.216797,-14.486333 -4.493173,-3.380356 -9.956635,-1.304968 -14.8125,-3.494141 -5.539958,-2.497583 -9.760183,-7.485493 -14.783203,-7.621094 z"
     transform="matrix(0.73611111,0,0,0.73611111,19,19)"
     id="path825-7-97"
     inkscape:connector-curvature="0"
     sodipodi:nodetypes="ccczczsc" /></svg>