<?xml version="1.0" encoding="UTF-8" standalone="no"?>
<svg
   xmlns:dc="http://purl.org/dc/elements/1.1/"
   xmlns:cc="http://creativecommons.org/ns#"
   xmlns:rdf="http://www.w3.org/1999/02/22-rdf-syntax-ns#"
   xmlns:svg="http://www.w3.org/2000/svg"
   xmlns="http://www.w3.org/2000/svg"
   xmlns:sodipodi="http://sodipodi.sourceforge.net/DTD/sodipodi-0.dtd"
   xmlns:inkscape="http://www.inkscape.org/namespaces/inkscape"
   xml:space="preserve"
   viewBox="19 19 331.25 110.41667"
   height="150"
   width="450"
   y="0px"
   x="0px"
   id="Layer_1"
   version="1.1"
   sodipodi:docname="tsukuyomi-header.svg"
   inkscape:version="0.92.3 (2405546, 2018-03-11)"
   inkscape:export-filename="C:\Users\ubnt-intrepid\Dropbox\icon\tsukuyomi\logo\tsukuyomi-icon.png"
   inkscape:export-xdpi="345.69"
   inkscape:export-ydpi="345.69"><metadata
     id="metadata8"><rdf:RDF><cc:Work
         rdf:about=""><dc:format>image/svg+xml</dc:format><dc:type
           rdf:resource="http://purl.org/dc/dcmitype/StillImage" /><dc:title></dc:title></cc:Work></rdf:RDF></metadata><defs
     id="defs6"><filter
       style="color-interpolation-filters:sRGB"
       inkscape:label="Cross Blur"
       id="filter863"><feColorMatrix
         in="SourceGraphic"
         values="1 0 0 0 0 0 1 0 0 0 0 0 1 0 0 -0.2125 -0.7154 -0.0721 1 0 "
         result="colormatrix"
         id="feColorMatrix853" /><feComposite
         in="SourceGraphic"
         in2="colormatrix"
         operator="arithmetic"
         k2="1"
         k3="0"
         k4="0"
         result="composite"
         id="feComposite855"
         k1="0" /><feGaussianBlur
         stdDeviation="5 0.01"
         result="blur1"
         id="feGaussianBlur857" /><feGaussianBlur
         in="composite"
         stdDeviation="0.01 5"
         result="blur2"
         id="feGaussianBlur859" /><feBlend
         in="blur2"
         in2="blur1"
         mode="darken"
         result="blend"
         id="feBlend861" /></filter></defs><sodipodi:namedview
     pagecolor="#ffffff"
     bordercolor="#666666"
     borderopacity="1"
     objecttolerance="10"
     gridtolerance="10"
     guidetolerance="10"
     inkscape:pageopacity="0"
     inkscape:pageshadow="2"
     inkscape:window-width="1920"
     inkscape:window-height="1027"
     id="namedview4"
     showgrid="true"
     inkscape:snap-global="false"
     inkscape:zoom="1.4142136"
     inkscape:cx="113.52534"
     inkscape:cy="38.827302"
     inkscape:window-x="-8"
     inkscape:window-y="-8"
     inkscape:window-maximized="1"
     inkscape:current-layer="Layer_1"><inkscape:grid
       type="xygrid"
       id="grid815"
       units="mm"
       spacingx="0.55643045"
       spacingy="0.55643045"
       color="#ff3f35"
       opacity="0.1254902"
       dotted="false" /></sodipodi:namedview><rect
     style="fill:#552200;fill-opacity:0.80288463;stroke-width:1.02291226"
     id="rect840"
     width="306.05942"
     height="4.164073"
     x="43.463921"
     y="97.145096" /><path
     style="fill:#eedac8;fill-opacity:1;stroke-width:1.10550618"
     id="path825"
     sodipodi:type="arc"
     sodipodi:cx="74.208336"
     sodipodi:cy="74.208328"
     sodipodi:rx="44.166668"
     sodipodi:ry="44.166668"
     sodipodi:start="2.3972097"
     sodipodi:end="2.3510981"
     sodipodi:open="true"
     d="m 41.723482,104.13205 a 44.166668,44.166668 0 0 1 2.188651,-62.061467 44.166668,44.166668 0 0 1 62.082567,1.473083 44.166668,44.166668 0 0 1 -0.75732,62.095424 44.166668,44.166668 0 0 1 -62.100027,-0.0414"
     inkscape:export-xdpi="345.69"
     inkscape:export-ydpi="345.69" /><path
     style="fill:#2d1200;fill-opacity:1;stroke-width:1"
     d="m 74.211208,21.875435 c -0.524,0 -1.011319,0.270983 -1.285319,0.715983 l -2.72016,4.395101 c -0.428,0.035 -0.856006,0.07808 -1.281006,0.125081 l -3.522407,-3.779758 c -0.357,-0.382 -0.887336,-0.552443 -1.400336,-0.451443 -0.515,0.103 -0.938419,0.462644 -1.12142,0.954644 l -1.805772,4.827854 c -0.418,0.12 -0.832063,0.248119 -1.245063,0.378119 l -4.183757,-3.012017 c -0.424999,-0.307 -0.978158,-0.37165 -1.462158,-0.16965 -0.483,0.2 -0.830392,0.638486 -0.914387,1.154486 l -0.829564,5.090956 c -0.383999,0.199 -0.763984,0.403468 -1.142984,0.612468 l -4.694146,-2.139323 c -0.477,-0.218 -1.03391,-0.174107 -1.46791,0.117893 -0.436,0.289999 -0.689976,0.788197 -0.669976,1.311198 l 0.179715,5.165717 c -0.334,0.267 -0.665025,0.539185 -0.992025,0.815185 l -5.030572,-1.186116 c -0.511,-0.119001 -1.047589,0.034 -1.417588,0.403998 -0.372001,0.371 -0.522561,0.905151 -0.402561,1.416151 l 1.184679,5.03201 c -0.275,0.325995 -0.546748,0.656587 -0.813748,0.990587 l -5.165717,-0.179715 c -0.521001,-0.015 -1.020198,0.233976 -1.311198,0.669976 -0.292,0.434 -0.334893,0.989909 -0.117893,1.46791 l 2.139323,4.695583 c -0.208,0.377 -0.413468,0.756985 -0.612468,1.142986 l -5.090956,0.828125 c -0.517,0.084 -0.952049,0.430388 -1.153049,0.914387 -0.2,0.485 -0.135349,1.037159 0.169651,1.462158 l 3.010579,4.18232 c -0.131,0.412999 -0.258119,0.8285 -0.378119,1.2465 l -4.827854,1.804335 c -0.49,0.183 -0.851206,0.607857 -0.953206,1.122857 -0.102,0.514 0.06988,1.042336 0.45288,1.400336 l 3.776883,3.522407 c -0.047,0.425 -0.08908,0.852568 -0.125081,1.279568 l -4.393663,2.72016 c -0.445,0.275 -0.715984,0.76032 -0.715984,1.28532 0,0.525 0.270984,1.011318 0.715984,1.285319 l 4.393663,2.72016 c 0.036,0.428 0.07808,0.854568 0.125081,1.279569 l -3.776883,3.523844 c -0.383,0.357 -0.55488,0.887336 -0.45288,1.400336 0.102,0.515 0.463206,0.937419 0.953206,1.121419 l 4.827854,1.804335 c 0.12,0.418 0.247119,0.833505 0.378119,1.246501 l -3.010579,4.183756 c -0.306,0.426 -0.370651,0.977721 -0.169651,1.460721 0.201,0.485 0.637487,0.831385 1.154487,0.914389 l 5.089518,0.828125 c 0.199,0.386002 0.402468,0.765423 0.612468,1.144424 l -2.139323,4.69415 c -0.218,0.477 -0.174107,1.03191 0.117893,1.46791 0.291999,0.437 0.790197,0.69097 1.311198,0.66998 l 5.162841,-0.17972 c 0.269,0.336 0.540623,0.66503 0.816624,0.99202 l -1.184679,5.03202 c -0.12,0.50999 0.03056,1.0437 0.402561,1.4147 0.369,0.37301 0.906588,0.52113 1.417588,0.40113 l 5.030572,-1.18468 c 0.327,0.278 0.658025,0.54775 0.992025,0.81375 l -0.179715,5.16715 c -0.02,0.523 0.233976,1.0192 0.669976,1.3112 0.434,0.291 0.99091,0.33446 1.46791,0.11645 l 4.694146,-2.13788 c 0.377999,0.21 0.757985,0.41347 1.142984,0.61247 l 0.829564,5.08808 c 0.084,0.518 0.430388,0.95549 0.914387,1.15449 0.483,0.20099 1.037159,0.13678 1.462158,-0.16822 l 4.18232,-3.01345 c 0.412999,0.131 0.8285,0.25956 1.2465,0.37956 l 1.804335,4.82497 c 0.183,0.49 0.607857,0.85321 1.122857,0.95321 0.514,0.104 1.041898,-0.0674 1.398898,-0.45144 l 3.523845,-3.77688 c 0.425,0.049 0.853006,0.09 1.281006,0.12795 l 2.72016,4.39366 c 0.274,0.44301 0.759882,0.71599 1.283882,0.71599 0.524,0 1.011756,-0.27199 1.286756,-0.71599 l 2.720161,-4.39366 c 0.428,-0.038 0.854568,-0.079 1.279568,-0.12795 l 3.522407,3.77688 c 0.357,0.38396 0.887336,0.55544 1.400336,0.45144 0.515,-0.101 0.938419,-0.46321 1.121419,-0.95321 l 1.804335,-4.82497 c 0.418,-0.12 0.833505,-0.24856 1.246501,-0.37956 l 4.183756,3.01345 c 0.425001,0.305 0.977721,0.36921 1.460721,0.16822 0.484,-0.199 0.830391,-0.63749 0.914389,-1.15449 l 0.82956,-5.08808 c 0.384,-0.199 0.763988,-0.40546 1.142989,-0.61247 l 4.694141,2.13788 c 0.477,0.21801 1.03291,0.17455 1.46791,-0.11645 0.436,-0.292 0.68898,-0.7872 0.66998,-1.3112 l -0.17972,-5.16715 c 0.334,-0.267 0.66602,-0.53575 0.99202,-0.81375 l 5.03058,1.18468 c 0.51099,0.12 1.04715,-0.0281 1.41614,-0.40113 0.37201,-0.371 0.52257,-0.90471 0.40257,-1.4147 l -1.18468,-5.03202 c 0.276,-0.32699 0.54774,-0.65602 0.81375,-0.99202 l 5.16571,0.17972 c 0.521,0.021 1.01877,-0.23298 1.30977,-0.66998 0.292,-0.436 0.33689,-0.99091 0.11788,-1.46791 l -2.13788,-4.69415 c 0.209,-0.379001 0.41303,-0.758422 0.61104,-1.144424 l 5.09095,-0.828125 c 0.518,-0.083 0.95305,-0.429389 1.15305,-0.914389 0.2,-0.483 0.13735,-1.034721 -0.16965,-1.460721 l -3.01058,-4.183756 c 0.12995,-0.412996 0.25712,-0.828501 0.37812,-1.246501 l 4.82641,-1.804335 c 0.49101,-0.184 0.85321,-0.606419 0.95321,-1.121419 0.104,-0.514 -0.0674,-1.043336 -0.45144,-1.400336 l -3.77689,-3.523844 c 0.046,-0.425001 0.0881,-0.852569 0.12508,-1.279569 l 4.39367,-2.72016 c 0.445,-0.274001 0.71598,-0.761319 0.71598,-1.285319 0,-0.524 -0.26955,-1.01032 -0.71455,-1.28532 l -4.39366,-2.72016 c -0.037,-0.428 -0.0791,-0.854568 -0.12508,-1.279568 l 3.77545,-3.522407 c 0.384,-0.358 0.55688,-0.887336 0.45288,-1.400336 -0.10101,-0.515 -0.46221,-0.939857 -0.95321,-1.122857 l -4.82785,-1.804335 c -0.121,-0.418 -0.24817,-0.833501 -0.37812,-1.2465 l 3.01201,-4.18232 c 0.30701,-0.424999 0.36966,-0.977158 0.16965,-1.462158 -0.2,-0.483 -0.63748,-0.829392 -1.15448,-0.914387 l -5.08952,-0.828125 c -0.198,-0.386001 -0.40447,-0.765986 -0.61247,-1.142986 l 2.13933,-4.695583 c 0.219,-0.478001 0.1741,-1.03391 -0.1179,-1.46791 -0.291,-0.436 -0.78376,-0.689976 -1.30976,-0.669976 l -5.16571,0.179715 c -0.267,-0.334 -0.53963,-0.665591 -0.81663,-0.990587 l 1.18755,-5.03201 c 0.12001,-0.511 -0.032,-1.045151 -0.404,-1.416151 -0.36899,-0.37 -0.9037,-0.523998 -1.4147,-0.403998 l -5.03202,1.186116 c -0.326,-0.276 -0.65702,-0.548185 -0.99202,-0.815185 l 0.18115,-5.165717 c 0.02,-0.523001 -0.23541,-1.021199 -0.67141,-1.311198 -0.437,-0.292 -0.98947,-0.334893 -1.46647,-0.117893 l -4.694145,2.139323 c -0.379002,-0.208 -0.758982,-0.413468 -1.142989,-0.612468 l -0.829561,-5.090956 c -0.084,-0.516 -0.430386,-0.954486 -0.914387,-1.154486 -0.483,-0.201 -1.037157,-0.13635 -1.462158,0.16965 l -4.185194,3.012017 c -0.412,-0.131 -0.825625,-0.258119 -1.243625,-0.378119 l -1.804335,-4.827854 c -0.183,-0.492 -0.607857,-0.852644 -1.122857,-0.954644 -0.514,-0.101 -1.043336,0.06944 -1.400336,0.451443 L 79.497694,27.1116 c -0.425,-0.047 -0.854006,-0.09008 -1.281006,-0.125081 l -2.718723,-4.395101 c -0.275,-0.445 -0.762757,-0.715983 -1.286757,-0.715983 z m -0.09489,9.256022 c 0.795125,0.0185 1.583204,0.340833 2.176703,0.961832 1.185001,1.245 1.140923,3.213852 -0.102078,4.400852 -1.239999,1.188 -3.2081,1.141922 -4.3951,-0.102078 -1.184001,-1.243 -1.138485,-3.211414 0.103515,-4.399413 0.62,-0.594001 1.421835,-0.879693 2.21696,-0.861193 z m 7.142578,5.122585 c 11.221,2.089001 20.720204,9.074254 26.195204,18.657254 l -3.66618,8.279812 c -0.633,1.433 0.013,3.108815 1.44203,3.743816 l 7.05775,3.13566 c 0.20964,2.313052 0.23936,4.488713 0.082,6.642253 -0.53441,7.169189 -3.1022,14.024224 -7.3266,19.818928 -1.08101,1.469002 -2.26841,2.858882 -3.54541,4.157885 l -6.574685,-1.411843 c -0.474993,-0.10177 -0.943,-0.0664 -1.378767,0.0604 v 0.0489 h -0.165337 c -0.892648,0.31982 -1.606834,1.072673 -1.820151,2.070313 l -1.559922,7.2806 c -4.814,2.185 -10.160446,3.39876 -15.790446,3.39876 -5.759,0 -11.221121,-1.2746 -16.121121,-3.55259 l -1.558485,-7.27917 c -0.328,-1.532003 -1.834258,-2.508583 -3.364258,-2.179583 l -6.426595,1.380213 c -1.193,-1.228003 -2.304002,-2.536783 -3.324001,-3.917784 v 0 C 40.707488,92.904661 38.649295,88.766276 37.401341,84.36874 v 0 c -0.949001,-3.336 -1.457846,-6.857772 -1.457846,-10.496772 0,-1.389 0.07453,-2.761433 0.218533,-4.110433 l 6.695448,-2.974636 c 1.377719,-0.611784 2.015994,-2.188168 1.493788,-3.584229 -1.175393,-2.684919 -2.486645,-5.689342 -3.561225,-8.138915 1.407855,-2.411813 3.004614,-4.664762 4.912679,-6.718453 v 0 c 5.506,-6.144999 12.969044,-10.498573 21.409044,-12.082573 l 4.78616,5.021946 c 1.082,1.132995 2.873479,1.175009 4.005479,0.09201 z m -44.34638,23.013537 c 1.211062,-0.02081 2.373562,0.671341 2.895562,1.850342 0.696,1.571 -0.01105,3.412557 -1.580051,4.107557 -1.569,0.697 -3.405806,-0.01237 -4.101807,-1.584364 -0.695999,-1.572 0.01249,-3.40912 1.581489,-4.10612 0.3925,-0.174 0.80112,-0.260477 1.204807,-0.267415 z m 74.262394,0.15096 c 0.40362,0.007 0.81256,0.09316 1.20481,0.267415 1.569,0.696001 2.27605,2.536562 1.58005,4.107558 -0.695,1.572 -2.53037,2.281364 -4.10037,1.584364 -1.567,-0.696 -2.27505,-2.535995 -1.58005,-4.108995 0.52125,-1.178251 1.68469,-1.871342 2.89556,-1.850342 z M 50.992079,103.06619 c 1.44544,-0.0127 2.750212,0.99051 3.065212,2.46138 0.359,1.67995 -0.70961,3.33637 -2.38661,3.69637 -1.677996,0.362 -3.329619,-0.70849 -3.690619,-2.38948 -0.359,-1.68401 0.70861,-3.3373 2.38661,-3.69925 0.20975,-0.0449 0.418915,-0.0672 0.625407,-0.069 z m 46.103273,0.15096 c 0.206391,0.002 0.415778,0.0252 0.625408,0.0705 1.677994,0.35899 2.74661,2.01637 2.3866,3.69637 -0.359991,1.67999 -2.013613,2.74992 -3.690614,2.39092 -1.677989,-0.362 -2.745171,-2.01624 -2.385171,-3.69924 0.31412,-1.47088 1.619012,-2.47323 3.063777,-2.4585 z"
     id="path3"
     inkscape:connector-curvature="0"
     sodipodi:nodetypes="scccccccccccccccccccccccccccccccccccccccscccccccccccccccccccccccccccccccccccccccscccccccccccccccccccccccccccccccccccccccscccccccccccccccccccccccccccccccccccccccsccccccccccccccccccccsccccccccscccccccccccccscccccccccccccccccccccc"
     inkscape:export-xdpi="345.69"
     inkscape:export-ydpi="345.69" /><path
     style="fill:#999999;fill-opacity:0.80288463;stroke-width:0.24905683"
     id="path825-7"
     sodipodi:type="arc"
     sodipodi:cx="53.597218"
     sodipodi:cy="75.864578"
     sodipodi:rx="9.9963169"
     sodipodi:ry="9.9043026"
     sodipodi:start="2.3972097"
     sodipodi:end="2.3510981"
     sodipodi:open="true"
     d="m 46.244865,82.574923 a 9.9963169,9.9043026 0 0 1 0.495362,-13.917181 9.9963169,9.9043026 0 0 1 14.051253,0.330336 9.9963169,9.9043026 0 0 1 -0.171406,13.924797 9.9963169,9.9043026 0 0 1 -14.055205,-0.0093" /><path
     style="fill:#999999;fill-opacity:0.80288463;stroke-width:0.16268779"
     id="path825-7-9"
     sodipodi:type="arc"
     sodipodi:cx="60.544273"
     sodipodi:cy="59.992184"
     sodipodi:rx="6.5457959"
     sodipodi:ry="6.4537816"
     sodipodi:start="2.3972097"
     sodipodi:end="2.3510981"
     sodipodi:open="true"
     d="m 55.729801,64.364738 a 6.5457959,6.4537816 0 0 1 0.324372,-9.068629 6.5457959,6.4537816 0 0 1 9.201053,0.215251 6.5457959,6.4537816 0 0 1 -0.11224,9.073592 6.5457959,6.4537816 0 0 1 -9.20364,-0.0061" /><path
     style="fill:#999999;fill-opacity:0.80288463;stroke-width:0.12353852"
     id="path825-7-9-7"
     sodipodi:type="arc"
     sodipodi:cx="71.171875"
     sodipodi:cy="52.67709"
     sodipodi:rx="4.9355536"
     sodipodi:ry="4.9355536"
     sodipodi:start="2.3972097"
     sodipodi:end="2.3510981"
     sodipodi:open="true"
     d="m 67.541745,56.021017 a 4.9355536,4.9355536 0 0 1 0.244578,-6.935268 4.9355536,4.9355536 0 0 1 6.937627,0.164614 4.9355536,4.9355536 0 0 1 -0.08463,6.939063 4.9355536,4.9355536 0 0 1 -6.939578,-0.0046" /><path
     style="fill:#999999;fill-opacity:0.80288463;stroke-width:0.05905066"
     id="path825-7-9-7-1"
     sodipodi:type="arc"
     sodipodi:cx="78.809029"
     sodipodi:cy="55.529518"
     sodipodi:rx="2.3591647"
     sodipodi:ry="2.3591647"
     sodipodi:start="2.3972097"
     sodipodi:end="2.3510981"
     sodipodi:open="true"
     d="m 77.073849,57.127895 a 2.3591647,2.3591647 0 0 1 0.116907,-3.315016 2.3591647,2.3591647 0 0 1 3.316143,0.07869 2.3591647,2.3591647 0 0 1 -0.04045,3.31683 2.3591647,2.3591647 0 0 1 -3.317076,-0.0022" /><path
     style="fill:#999999;fill-opacity:0.80288463;stroke-width:0.09129459"
     id="path825-7-9-7-1-7"
     sodipodi:type="arc"
     sodipodi:cx="78.348961"
     sodipodi:cy="45.500004"
     sodipodi:rx="3.6473591"
     sodipodi:ry="3.6473591"
     sodipodi:start="2.3972097"
     sodipodi:end="2.3510981"
     sodipodi:open="true"
     d="m 75.666306,47.971156 a 3.6473591,3.6473591 0 0 1 0.180743,-5.125142 3.6473591,3.6473591 0 0 1 5.126884,0.121649 3.6473591,3.6473591 0 0 1 -0.06254,5.127947 3.6473591,3.6473591 0 0 1 -5.128327,-0.0034" /><path
     style="fill:#999999;fill-opacity:0.80288463;stroke-width:0.25443286"
     d="m 62.069688,85.255751 c -0.702902,-0.01825 -1.373347,0.02991 -2.001302,0.143772 -5.153295,0.934716 -6.44111,6.009054 -2.888373,11.380966 3.217525,4.182531 9.696773,7.797301 14.267903,8.338771 4.571131,0.54147 9.311314,0.54565 12.567085,-1.0179 5.222295,-2.50987 3.147888,-8.175246 -0.159587,-10.663561 -3.307474,-2.488318 -7.329189,-0.960601 -10.903646,-2.572076 -4.078024,-1.838499 -7.184579,-5.510155 -10.88208,-5.609972 z"
     id="path825-7-97"
     inkscape:connector-curvature="0"
     sodipodi:nodetypes="ccczczsc" /><text
     xml:space="preserve"
     style="font-style:normal;font-weight:normal;font-size:47.11111069px;line-height:1.25;font-family:sans-serif;letter-spacing:0px;word-spacing:0px;fill:#552200;fill-opacity:1;stroke:none;stroke-width:0.7361111"
     x="130.38895"
     y="86.734924"
     id="text838"><tspan
       sodipodi:role="line"
       id="tspan836"
       x="130.38895"
       y="86.734924"
       style="font-style:normal;font-variant:normal;font-weight:normal;font-stretch:normal;font-size:47.11111069px;font-family:'Ubuntu Mono';-inkscape-font-specification:'Ubuntu Mono';fill:#552200;stroke-width:0.7361111">Tsukuyomi</tspan></text>
</svg>